<svg viewBox="0 0 24 24" xmlns="http://www.w3.org/2000/svg"><path fill="none" d="M0 24V0h24v24Z"/><g fill="#323232"><path d="M12.55 12.54c2.37-2.45 2.93-6.13 1.4-9.17 .06.13.01.28-.12.34 -.06.02-.12.03-.17.01 1.52.36 2.91 1.14 4.02 2.25 3.32 3.24 3.39 8.56.16 11.88 -3.31 3.22-8.63 3.15-11.87-.17 -1.12-1.12-1.9-2.51-2.26-4.04 .03.13-.06.27-.19.3 -.06.01-.12 0-.17-.02 3.03 1.53 6.71.96 9.15-1.41Zm-1.07-1.07c-1.99 1.92-4.97 2.38-7.44 1.14 -.28-.14-.57-.17-.85-.1 -.68.16-1.09.83-.93 1.5 .43 1.79 1.34 3.42 2.65 4.73 3.8 3.9 10.07 3.99 13.99.17 3.82-3.94 3.74-10.2-.18-14.02 -1.3-1.3-2.94-2.22-4.73-2.65 -.29-.07-.58-.04-.84.09 -.63.3-.88 1.04-.58 1.67 1.25 2.47.79 5.46-1.14 7.44Z"/><path d="M2.68 9.76l-.01 0 .53.53 .53-.54 -.01-.01 -.54.53 .53.53 0-.01 -.54-.54 -.54.53 0 0c.29.29.76.29 1.06 0 .29-.3.29-.77 0-1.07l-.01-.01c-.3-.3-.77-.3-1.07 0l-.01 0c-.3.29-.3.76 0 1.06l0 0c.29.29.76.29 1.06 0l0-.01c.29-.3.29-.77-.001-1.07 -.3-.3-.77-.3-1.07 0Z"/><path d="M4.01 6.52l-.01 0 .53.53 .53-.54 -.01-.01 -.54.53 .53.53 0-.01 -.54-.54 -.54.53 0 0c.29.29.76.29 1.06 0 .29-.3.29-.77 0-1.07l-.01-.01c-.3-.3-.77-.3-1.07 0l-.01 0c-.3.29-.3.76 0 1.06l0 0c.29.29.76.29 1.06 0l0-.01c.29-.3.29-.77 0-1.07 -.3-.3-.77-.3-1.07 0Z"/><path d="M6.46 4.04l-.01 0 .53.53 .53-.54 -.01-.01 -.54.53 .53.53 0-.01 -.54-.54 -.54.53 0 0c.29.29.76.29 1.06 0 .29-.3.29-.77 0-1.07l-.01-.01c-.3-.3-.77-.3-1.07 0l-.01 0c-.3.29-.3.76 0 1.06l0 0c.29.29.76.29 1.06 0l0-.01c.29-.3.29-.77 0-1.07 -.3-.3-.77-.3-1.07 0Z"/><path d="M9.68 2.69l-.01 0 .53.53 .53-.54 -.01-.01 -.54.53 .53.53 0-.01 -.54-.54 -.54.53 0 0c.29.29.76.29 1.06-.001 .29-.3.29-.77-.001-1.07l-.01-.01c-.3-.3-.77-.3-1.07 0l-.01 0c-.3.29-.3.76 0 1.06l0 0c.29.29.76.29 1.06 0l0-.01c.29-.3.29-.77 0-1.07 -.3-.3-.77-.3-1.07-.001Z"/></g></svg>