<svg viewBox="0 0 24 24" xmlns="http://www.w3.org/2000/svg"><g fill="#323232"><path d="M20.25 12c0 4.55-3.7 8.25-8.25 8.25 -4.56 0-8.25-3.7-8.25-8.25 0-4.56 3.69-8.25 8.25-8.25 4.55 0 8.25 3.69 8.25 8.25Zm1.5 0c0-5.39-4.37-9.75-9.75-9.75 -5.39 0-9.75 4.36-9.75 9.75 0 5.38 4.36 9.75 9.75 9.75 5.38 0 9.75-4.37 9.75-9.75Z"/><path d="M7.91 12.86l2.16 2.16 .53-.54 .53-.54 -.02-.02 -.54.53 .53.53 4.88-4.89c.29-.3.29-.77 0-1.07 -.3-.3-.77-.3-1.07 0l-4.89 4.88c-.3.29-.3.76 0 1.06l.01.01c.7.7 1.76-.36 1.06-1.07l-2.17-2.17c-.3-.3-.77-.3-1.07 0 -.3.29-.3.76 0 1.06Z"/></g><path fill="none" d="M0 0h24v24H0Z"/></svg>