<svg viewBox="0 0 24 24" xmlns="http://www.w3.org/2000/svg"><g fill="#323232"><path d="M12 20.25H6c-.7 0-1.25-.56-1.25-1.25 0-.7.55-1.25 1.25-1.25h5c.41 0 .75-.34.75-.75 0-.42-.34-.75-.75-.75H6c-1.52 0-2.75 1.23-2.75 2.75 0 1.51 1.23 2.75 2.75 2.75h6c.41 0 .75-.34.75-.75 0-.42-.34-.75-.75-.75Z"/><path d="M20.75 11V5c0-1.52-1.24-2.75-2.75-2.75H6C4.48 2.25 3.25 3.48 3.25 5v14c0 .41.33.75.75.75 .41 0 .75-.34.75-.75V5c0-.7.55-1.25 1.25-1.25h12c.69 0 1.25.55 1.25 1.25v6c0 .41.33.75.75.75 .41 0 .75-.34.75-.75Z"/><path d="M7.46 7.53l1.5 1.5V7.96l-1.5 1.5c-.3.29-.3.76 0 1.06 .29.29.76.29 1.06 0l1.5-1.5c.29-.3.29-.77 0-1.07l-1.5-1.5c-.3-.3-.77-.3-1.07 0 -.3.29-.3.76 0 1.06Z"/><path d="M11.5 11.75H13c.41 0 .75-.34.75-.75 0-.42-.34-.75-.75-.75h-1.5c-.42 0-.75.33-.75.75 0 .41.33.75.75.75Z"/><path d="M21.25 18c0 1.79-1.46 3.25-3.25 3.25 -1.8 0-3.25-1.46-3.25-3.25 0-1.8 1.45-3.25 3.25-3.25 1.79 0 3.25 1.45 3.25 3.25Zm1.5 0c0-2.63-2.13-4.75-4.75-4.75 -2.63 0-4.75 2.12-4.75 4.75 0 2.62 2.12 4.75 4.75 4.75 2.62 0 4.75-2.13 4.75-4.75Z"/><path d="M19.25 17.25h-2.5c-.42 0-.75.33-.75.75 0 .41.33.75.75.75h2.5c.41 0 .75-.34.75-.75 0-.42-.34-.75-.75-.75Z"/><path d="M17.25 16.75v2.5c0 .41.33.75.75.75 .41 0 .75-.34.75-.75v-2.5c0-.42-.34-.75-.75-.75 -.42 0-.75.33-.75.75Z"/></g><path fill="none" d="M0 0h24v24H0Z"/></svg>